<?xml version="1.0" standalone="no"?>
<!DOCTYPE svg PUBLIC "-//W3C//DTD SVG 20010904//EN"
 "http://www.w3.org/TR/2001/REC-SVG-20010904/DTD/svg10.dtd">
<svg version="1.0" xmlns="http://www.w3.org/2000/svg"
 width="730.000000pt" height="730.000000pt" viewBox="0 0 730.000000 730.000000"
 preserveAspectRatio="xMidYMid meet">
<metadata>
Created by potrace 1.14, written by Peter Selinger 2001-2017
</metadata>
<g transform="translate(0.000000,730.000000) scale(0.100000,-0.100000)"
fill="#000000" stroke="none">
<path d="M2217 7294 c-3 -3 -20 -7 -39 -9 -46 -5 -93 -14 -163 -31 -82 -20
-89 -22 -95 -24 -3 -1 -7 -2 -10 -2 -3 0 -50 -15 -105 -34 -55 -19 -107 -36
-115 -38 -8 -2 -41 -15 -73 -30 -31 -14 -58 -25 -60 -24 -1 1 -23 -10 -49 -25
-27 -15 -48 -25 -48 -22 0 2 -39 -18 -86 -45 -47 -28 -90 -50 -95 -50 -5 0 -9
-4 -9 -10 0 -5 -7 -10 -15 -10 -8 0 -15 -4 -15 -10 0 -5 -7 -10 -15 -10 -8 0
-15 -4 -15 -9 0 -5 -9 -13 -20 -16 -11 -3 -26 -12 -32 -19 -7 -7 -38 -29 -68
-50 -30 -21 -62 -44 -70 -52 -8 -8 -33 -29 -54 -47 -22 -17 -47 -39 -56 -47
-9 -8 -35 -32 -58 -52 -23 -21 -40 -38 -38 -38 2 0 -10 -15 -27 -33 -18 -18
-35 -31 -39 -29 -5 2 -8 0 -8 -5 0 -4 -16 -26 -35 -47 -19 -22 -35 -43 -35
-48 0 -4 -7 -8 -15 -8 -8 0 -14 -4 -13 -9 2 -5 -8 -21 -22 -37 -22 -26 -87
-114 -123 -168 -6 -10 -18 -24 -25 -32 -7 -7 -13 -17 -14 -21 0 -4 -11 -24
-23 -43 -12 -19 -39 -68 -60 -108 -21 -39 -42 -72 -47 -72 -4 0 -7 -3 -6 -7 3
-17 -15 -63 -25 -63 -6 0 -7 -3 -4 -7 4 -3 2 -11 -3 -18 -5 -6 -11 -22 -13
-34 -2 -13 -9 -26 -16 -30 -7 -5 -11 -10 -10 -12 3 -3 -35 -116 -69 -209 -3
-8 -7 -24 -9 -35 -2 -11 -8 -31 -13 -45 -5 -14 -12 -37 -15 -52 -5 -28 -9 -49
-20 -98 -21 -92 -32 -164 -39 -252 -2 -25 -6 -50 -9 -54 -2 -5 -5 -617 -5
-1360 l0 -1351 1090 1 c599 1 1092 -3 1095 -7 3 -5 6 -18 8 -30 2 -12 6 -37 9
-54 3 -18 8 -45 11 -60 2 -16 7 -39 10 -53 4 -14 10 -41 15 -60 4 -19 13 -49
18 -67 6 -17 8 -34 4 -37 -3 -3 0 -6 6 -6 7 0 12 -9 12 -20 0 -16 21 -82 47
-150 4 -8 7 -17 8 -20 1 -3 9 -23 18 -44 10 -22 20 -50 23 -63 4 -13 10 -23
16 -23 5 0 6 -4 3 -10 -3 -5 -1 -10 4 -10 6 0 10 -3 9 -7 0 -5 6 -25 16 -45 9
-21 16 -41 15 -45 0 -3 6 -10 15 -15 9 -5 14 -13 11 -17 -2 -5 2 -14 10 -21 8
-7 15 -16 15 -21 0 -5 12 -28 27 -52 15 -23 28 -44 28 -47 0 -6 10 -20 108
-155 67 -92 88 -119 142 -179 11 -12 37 -40 57 -63 20 -23 39 -39 42 -35 3 3
6 -1 6 -9 0 -8 9 -21 21 -29 12 -8 40 -33 63 -56 22 -22 88 -77 146 -122 58
-44 113 -88 123 -96 9 -9 19 -15 22 -13 2 1 13 -5 23 -13 21 -17 32 -24 162
-99 52 -30 100 -54 107 -54 7 0 13 -4 13 -9 0 -4 5 -8 11 -8 5 0 37 -13 70
-29 32 -17 59 -27 59 -24 0 3 6 1 13 -5 6 -5 41 -19 77 -31 36 -13 72 -25 80
-28 17 -7 15 -6 90 -28 76 -22 116 -32 158 -41 36 -7 76 -15 97 -19 23 -4 83
-14 140 -21 121 -16 355 -22 355 -9 0 7 3 6 8 0 4 -6 16 -10 27 -9 11 2 56 5
100 9 77 5 131 11 185 20 14 2 43 7 65 11 22 3 49 8 60 9 11 2 21 4 23 5 2 3
1 2 57 15 46 10 53 12 60 15 7 4 15 5 58 14 20 5 37 12 37 18 0 5 5 6 10 3 6
-4 17 -1 25 5 8 7 15 10 15 6 0 -5 45 10 115 39 11 5 22 9 25 9 19 4 148 62
161 73 8 7 21 13 28 13 7 0 25 9 41 20 15 11 30 17 34 13 3 -3 6 -1 6 5 0 7 6
12 13 12 8 0 24 9 37 20 13 11 29 20 36 20 7 0 19 6 26 14 8 7 28 21 46 30 18
9 32 21 32 27 0 6 4 8 9 5 5 -4 11 -3 13 1 1 5 26 24 53 42 28 19 53 40 57 45
4 6 8 7 8 2 0 -5 11 2 24 15 13 13 45 42 72 64 75 61 252 242 319 325 33 41
63 76 68 78 4 2 7 10 7 18 0 8 5 14 10 14 6 0 10 5 10 10 0 11 10 24 43 61 9
10 17 25 17 33 0 8 3 16 8 18 11 4 84 124 112 183 13 28 28 53 32 56 5 3 10
16 11 27 1 12 4 22 8 22 7 0 22 39 20 53 -1 4 4 7 11 7 6 0 8 3 5 7 -4 3 -3
11 1 17 8 11 55 123 58 139 1 4 2 8 3 10 2 1 4 13 7 26 2 14 9 30 15 38 6 7 8
13 4 13 -4 0 -2 7 5 15 7 8 9 15 6 15 -4 0 -2 9 4 19 5 11 12 32 14 48 2 15 6
35 9 43 5 13 14 52 32 138 11 52 26 155 29 207 1 11 4 25 8 30 7 13 8 457 0
470 -3 5 -7 21 -8 35 -5 51 -16 145 -19 160 -3 15 -21 107 -30 145 -2 11 -13
51 -24 90 -11 38 -18 71 -16 74 2 2 -3 10 -11 18 -8 8 -12 19 -8 24 3 6 2 15
-3 22 -5 7 -15 30 -22 52 -7 22 -19 54 -26 70 -8 17 -22 51 -32 77 -10 27 -21
48 -25 48 -5 0 -8 6 -8 14 0 17 -70 156 -88 174 -6 8 -10 17 -7 22 3 5 2 10
-2 12 -11 5 -63 86 -63 98 0 6 -7 13 -15 16 -8 4 -15 10 -15 15 0 13 -92 139
-102 139 -4 0 -8 6 -8 14 0 8 -10 22 -22 30 -12 9 -19 16 -14 16 4 0 -6 13
-23 29 -16 15 -29 30 -27 32 1 2 -48 55 -111 116 -62 62 -113 111 -113 108 0
-2 -10 6 -23 18 -35 34 -85 74 -157 125 -36 26 -66 50 -68 54 -2 5 -9 8 -16 8
-7 0 -21 8 -32 18 -24 20 -66 46 -114 70 -19 9 -40 22 -46 27 -6 6 -31 19 -55
30 -24 11 -47 23 -50 28 -3 5 -9 9 -12 8 -4 0 -24 7 -44 16 -21 9 -41 16 -45
15 -5 -1 -8 3 -8 10 0 6 -3 9 -6 5 -4 -3 -19 0 -34 8 -15 8 -30 11 -34 8 -3
-4 -6 -2 -6 4 0 6 -21 16 -47 23 -27 7 -52 16 -58 20 -14 9 -99 32 -106 28 -3
-2 -13 3 -22 11 -10 7 -17 11 -17 7 0 -3 -12 -1 -27 5 -16 6 -39 12 -53 15
-23 3 -36 6 -100 21 -14 3 -40 6 -57 7 -18 1 -33 4 -33 8 0 4 -13 5 -30 3 -18
-2 -31 1 -32 8 -1 13 -5 29 -8 37 -1 3 -3 21 -6 40 -5 40 -12 75 -14 75 -2 0
-7 24 -15 69 -4 22 -10 49 -15 60 -4 12 -8 24 -9 29 0 4 -1 8 -2 10 0 1 -2 13
-5 27 -2 14 -16 59 -30 100 -14 41 -27 80 -29 85 -4 18 -25 70 -35 87 -6 10
-10 25 -10 33 0 8 -5 15 -10 15 -6 0 -9 3 -8 8 2 13 -53 131 -104 222 -14 25
-34 62 -45 82 -11 21 -23 35 -27 31 -3 -3 -6 -1 -6 6 0 7 -20 42 -45 78 -25
35 -45 66 -45 69 0 3 -14 19 -30 34 -17 16 -30 32 -30 35 1 4 -16 26 -39 51
-22 24 -38 44 -35 44 7 0 -229 231 -276 270 -23 19 -48 40 -54 45 -6 6 -28 21
-48 35 -21 14 -38 29 -38 33 0 5 -4 5 -10 2 -5 -3 -10 -1 -10 5 0 6 -8 14 -17
17 -10 4 -27 15 -37 25 -11 10 -26 18 -33 18 -7 0 -13 5 -13 10 0 6 -6 10 -14
10 -8 0 -16 4 -18 8 -6 15 -262 152 -284 152 -8 0 -14 4 -14 10 0 5 -3 9 -7 8
-5 -1 -30 8 -57 20 -27 12 -54 22 -62 22 -7 0 -16 5 -19 11 -4 6 -13 8 -20 5
-7 -2 -17 0 -21 4 -14 14 -165 60 -175 54 -5 -3 -9 -1 -9 4 0 5 -6 9 -12 10
-7 1 -35 6 -63 12 -27 6 -63 14 -80 17 -46 8 -60 11 -60 13 0 12 -786 26 -798
14z m538 -669 c99 -10 120 -13 120 -15 0 -1 9 -3 20 -5 19 -3 89 -15 110 -19
18 -4 130 -37 145 -43 8 -3 17 -7 20 -8 3 -1 18 -7 33 -13 16 -7 32 -12 37
-12 12 0 223 -100 230 -108 7 -10 62 -42 83 -49 9 -3 17 -9 17 -14 0 -5 5 -9
11 -9 6 0 24 -10 40 -22 44 -35 153 -122 159 -128 3 -3 24 -22 47 -42 23 -20
39 -39 35 -42 -3 -3 2 -6 11 -6 10 0 17 -3 17 -7 0 -5 19 -29 43 -54 82 -91
97 -109 90 -109 -5 0 0 -5 10 -11 9 -5 17 -16 17 -24 0 -7 4 -15 9 -17 17 -6
122 -181 162 -268 11 -25 27 -58 35 -74 8 -16 14 -35 14 -43 0 -7 5 -13 10
-13 6 0 9 -3 8 -7 -1 -7 8 -42 27 -103 1 -3 4 -12 8 -20 5 -13 13 -43 34 -125
13 -49 14 -83 4 -89 -6 -4 -25 -9 -43 -12 -67 -10 -73 -11 -73 -14 0 -1 -9 -3
-20 -4 -31 -4 -110 -21 -120 -26 -6 -3 -10 -4 -50 -14 -16 -4 -48 -14 -70 -23
-22 -8 -41 -15 -42 -14 -4 1 -34 -9 -58 -19 -11 -4 -36 -14 -55 -21 -19 -7
-64 -26 -100 -42 -36 -15 -67 -28 -70 -28 -3 0 -13 -8 -22 -16 -10 -9 -18 -13
-18 -8 0 4 -6 3 -12 -2 -7 -6 -33 -21 -58 -35 -125 -69 -160 -91 -160 -100 0
-5 -4 -7 -8 -4 -5 3 -18 -2 -29 -12 -10 -9 -26 -21 -34 -27 -86 -56 -108 -73
-102 -79 3 -3 -1 -6 -10 -6 -9 0 -20 -6 -24 -13 -4 -6 -26 -26 -48 -42 -22
-16 -49 -39 -60 -50 -11 -11 -35 -33 -53 -48 -19 -15 -32 -27 -30 -27 2 0 -39
-44 -89 -97 -51 -54 -93 -101 -93 -104 0 -4 -16 -23 -35 -43 -19 -20 -33 -36
-30 -36 2 0 -19 -30 -46 -67 -28 -38 -54 -75 -57 -83 -3 -8 -10 -19 -14 -25
-19 -23 -58 -87 -58 -94 0 -5 -7 -14 -15 -21 -8 -7 -13 -16 -10 -20 3 -5 0
-14 -7 -22 -17 -18 -58 -100 -58 -115 0 -7 -4 -13 -10 -13 -5 0 -10 -8 -10
-18 0 -10 -4 -22 -8 -28 -9 -10 -62 -134 -66 -156 -2 -7 -6 -20 -9 -28 -25
-66 -66 -208 -82 -290 -2 -8 -4 -15 -5 -15 -1 0 -3 -13 -5 -30 -1 -16 -3 -30
-4 -30 -4 0 -11 -36 -14 -70 -2 -17 -6 -35 -9 -40 -4 -7 -266 -9 -745 -9 -406
1 -743 2 -748 3 -13 1 -14 1951 -1 1951 5 0 3 6 -3 13 -6 8 -8 17 -4 21 4 4 8
17 9 29 4 39 12 101 20 142 4 22 7 48 8 58 0 9 5 17 10 17 5 0 7 3 4 6 -4 3
-2 20 3 37 6 18 12 40 14 49 20 92 141 370 186 426 10 13 16 28 13 33 -3 5 0
9 6 9 6 0 15 11 20 25 5 14 14 25 20 25 5 0 10 5 10 11 0 12 59 92 72 97 5 2
8 8 8 13 0 17 177 201 240 250 17 13 41 33 54 44 13 11 33 27 46 35 13 8 35
25 50 37 15 12 30 20 34 16 3 -3 6 -2 6 4 0 5 25 22 55 38 30 15 55 30 55 34
0 7 61 34 73 32 4 0 7 4 7 10 0 5 5 7 10 4 6 -3 10 -1 10 4 0 6 3 10 8 9 4 -1
30 8 57 21 28 12 57 24 65 26 8 2 40 13 70 24 47 17 132 41 205 58 11 2 36 6
55 8 19 2 35 4 35 5 0 4 47 11 115 16 41 3 76 7 77 8 4 4 204 -2 268 -9z
m1649 -2307 c1 -62 -2 -125 -5 -140 -4 -16 -5 -28 -1 -28 8 0 8 -187 0 -196
-4 -3 -3 -18 1 -32 8 -32 6 -213 -2 -236 -4 -9 -3 -16 1 -16 6 0 8 -185 2
-200 -1 -3 -1 -9 0 -15 6 -25 5 -52 -1 -77 -4 -16 -5 -28 -1 -28 8 0 8 -187 0
-196 -4 -3 -3 -18 1 -32 5 -23 7 -86 2 -127 -1 -7 -245 -10 -714 -9 -391 1
-718 2 -726 3 -8 1 -11 7 -6 19 4 9 9 28 11 42 5 27 41 155 51 180 3 8 7 21 9
29 9 46 127 290 146 302 5 3 9 8 8 10 -4 8 24 59 32 59 4 0 8 7 8 15 0 8 5 15
10 15 6 0 10 7 10 15 0 8 4 15 8 15 5 0 15 12 23 27 8 16 25 38 38 50 13 13
21 23 18 23 -13 0 151 170 227 235 33 28 64 55 70 61 6 6 13 10 16 10 3 -1 12
5 20 11 51 43 80 64 80 58 0 -3 10 3 22 15 12 11 28 20 35 20 7 0 13 3 13 8 0
4 15 13 33 21 17 8 34 17 37 20 6 8 52 28 64 29 5 0 12 4 15 9 9 14 128 62
135 56 3 -4 6 -1 6 6 0 7 4 10 9 6 5 -3 12 -1 16 5 4 6 11 8 16 5 5 -4 9 -1 9
5 0 6 4 9 9 5 5 -3 12 -1 16 5 4 6 11 8 16 4 5 -3 16 0 24 6 8 7 15 9 15 5 0
-4 6 -3 13 2 12 10 18 11 72 15 14 1 25 6 25 11 0 4 3 6 8 4 4 -3 16 -1 27 3
11 4 22 6 24 4 2 -1 4 -54 5 -116z m794 93 c20 -5 53 -14 72 -21 19 -6 42 -13
50 -15 28 -8 85 -30 108 -43 12 -7 22 -10 22 -7 0 3 11 -2 25 -11 14 -9 25
-13 25 -9 0 3 14 -3 30 -15 17 -12 30 -18 30 -14 0 4 8 1 18 -7 9 -8 31 -21
47 -29 47 -23 148 -89 157 -103 4 -7 8 -8 8 -4 0 5 21 -9 47 -30 26 -21 56
-45 67 -53 10 -8 26 -22 36 -30 91 -83 107 -99 102 -104 -3 -3 3 -6 13 -6 10
0 16 -2 13 -5 -3 -3 13 -25 36 -49 23 -24 52 -59 66 -77 14 -18 31 -38 38 -46
7 -7 11 -13 7 -13 -3 0 5 -12 19 -27 14 -15 23 -30 20 -35 -3 -4 -1 -8 3 -8
10 0 49 -62 45 -72 -1 -5 3 -8 8 -8 6 0 18 -18 27 -40 10 -22 21 -40 25 -40 5
0 8 -5 8 -12 0 -6 12 -36 26 -67 14 -31 32 -69 40 -86 20 -47 74 -216 74 -235
0 -9 3 -20 7 -24 4 -3 8 -14 9 -24 1 -9 4 -33 8 -52 13 -74 15 -87 22 -139 13
-115 13 -172 1 -164 -9 5 -9 3 -1 -8 12 -15 11 -199 -1 -219 -3 -5 0 -10 7
-10 8 0 9 -3 3 -8 -11 -8 -11 -7 -20 -87 -4 -33 -10 -62 -14 -65 -3 -3 -7 -14
-8 -25 -2 -21 -12 -74 -17 -90 -1 -5 -8 -30 -15 -55 -31 -112 -134 -335 -203
-445 -49 -76 -138 -199 -138 -190 0 4 -13 -10 -29 -31 -24 -33 -98 -108 -198
-202 -13 -12 -28 -22 -33 -22 -5 0 -14 -8 -19 -17 -6 -10 -11 -14 -11 -9 0 4
-9 -2 -20 -15 -10 -13 -19 -21 -20 -17 0 4 -14 -6 -32 -22 -17 -16 -34 -28
-36 -25 -2 2 -13 -5 -25 -16 -11 -10 -27 -19 -34 -19 -7 0 -13 -4 -13 -10 0
-5 -4 -10 -10 -10 -5 0 -31 -13 -57 -28 -26 -15 -68 -36 -93 -47 -25 -11 -48
-24 -52 -30 -4 -5 -8 -7 -8 -2 0 4 -19 -2 -42 -14 -24 -12 -44 -21 -45 -21 -3
2 -8 0 -92 -28 -35 -11 -66 -18 -69 -16 -3 3 -10 1 -17 -4 -7 -5 -27 -12 -46
-14 -19 -3 -34 -5 -34 -6 0 -2 -37 -10 -80 -15 -22 -3 -47 -8 -55 -10 -8 -2
-60 -7 -114 -10 -55 -4 -104 -8 -108 -11 -4 -3 -8 -1 -8 3 0 10 -47 10 -56 0
-4 -4 -12 -3 -18 0 -6 4 -36 8 -66 10 -49 2 -125 10 -125 13 0 1 -16 3 -35 5
-42 4 -66 9 -150 31 -36 9 -72 17 -80 19 -15 2 -38 10 -77 26 -13 5 -33 13
-45 18 -13 4 -48 19 -77 32 -30 13 -59 23 -63 22 -4 -2 -8 2 -8 7 0 6 -7 10
-15 10 -8 0 -15 4 -15 10 0 5 -3 9 -7 8 -18 -3 -145 67 -136 75 3 4 0 7 -8 7
-8 0 -29 10 -46 23 -17 12 -41 29 -53 37 -12 8 -30 22 -40 30 -10 8 -37 31
-61 50 -47 39 -201 190 -193 190 3 0 -5 10 -18 23 -43 41 -167 214 -164 229 0
3 -8 17 -20 30 -11 13 -27 38 -34 56 -7 17 -17 32 -22 32 -5 0 -7 4 -3 9 3 5
-2 16 -10 24 -8 9 -15 20 -15 26 0 6 -10 32 -21 58 -12 27 -25 57 -30 68 -15
41 -22 60 -25 70 -1 6 -9 29 -18 53 -8 23 -13 42 -11 42 2 0 -2 18 -10 40 -8
22 -12 40 -10 40 3 0 0 11 -5 25 -6 17 -6 27 2 31 7 4 487 8 1067 8 l1056 1 0
1066 0 1065 38 -8 c20 -4 54 -12 75 -17z"/>
</g>
</svg>
