<svg width="13" height="21" viewBox="0 0 13 21" fill="none" xmlns="http://www.w3.org/2000/svg">
<path d="M10.0394 20.46C8.25859 19.6881 6.68721 18.5564 5.32525 17.0648C3.9633 15.5733 2.90394 13.9125 2.14719 12.0825C1.39044 10.2525 0.968742 8.35018 0.882085 6.37552C0.795428 4.40086 1.12382 2.55519 1.86726 0.838519L2.04898 0.41926C2.11245 0.272851 2.18683 0.139082 2.27213 0.0179509L7.11757 2.11821L6.14433 6.46322L2.78855 7.73596C2.95297 8.94558 3.29189 10.1597 3.80531 11.3783C4.31872 12.5969 4.96704 13.7396 5.75027 14.8063L9.15611 13.5316L12.9514 16.1253L10.9264 20.797C10.7826 20.7505 10.6332 20.6978 10.4784 20.6389C10.3235 20.58 10.1772 20.5204 10.0394 20.46Z" fill="black"/>
</svg>
