<svg width="231" height="106" viewBox="0 0 231 106" fill="none" xmlns="http://www.w3.org/2000/svg">
<path d="M18.6608 17.9975C21.9633 18.2483 24.6179 19.3561 26.6245 21.3209C28.6729 23.2439 29.6971 25.6476 29.6971 28.5321C29.6971 30.7477 29.1536 32.7543 28.0667 34.5518C26.9798 36.3494 25.4749 37.7707 23.5519 38.8158C21.6707 39.8191 19.5596 40.3208 17.2186 40.3208C15.8391 40.3208 14.3341 40.2581 12.7038 40.1327C12.1185 40.0909 11.4287 40.0491 10.6345 40.0073C9.84019 39.9655 8.9623 39.9445 8.00081 39.9445L3.73681 40.0073C2.98434 40.0491 1.91833 40.07 0.538803 40.07C0.455195 40.07 0.413391 39.9445 0.413391 39.6937C0.413391 39.4429 0.455195 39.3175 0.538803 39.3175C2.08555 39.3175 3.23516 39.213 3.98763 39.004C4.7401 38.7531 5.26265 38.3351 5.55528 37.7498C5.84791 37.1646 5.99422 36.2449 5.99422 34.9908V5.95791C5.99422 4.7038 5.84791 3.78411 5.55528 3.19885C5.30446 2.6136 4.80281 2.21646 4.05034 2.00744C3.33967 1.75661 2.21096 1.6312 0.664215 1.6312C0.538803 1.6312 0.476097 1.50579 0.476097 1.25497C0.476097 1.00414 0.538803 0.878733 0.664215 0.878733L3.73681 0.941438C5.49257 1.02504 6.91391 1.06685 8.00081 1.06685C8.75328 1.06685 9.44305 1.04595 10.0701 1.00414C10.739 0.96234 11.3033 0.920536 11.7632 0.878733C13.0591 0.75332 14.2714 0.690614 15.4001 0.690614C18.9116 0.690614 21.5453 1.46399 23.3011 3.01073C25.0568 4.51568 25.9347 6.50137 25.9347 8.9678C25.9347 10.9744 25.2868 12.772 23.9908 14.3605C22.6949 15.9073 20.9182 17.1196 18.6608 17.9975ZM14.0833 1.6312C12.9964 1.6312 12.1812 1.73571 11.6378 1.94473C11.0943 2.11195 10.6972 2.50909 10.4463 3.13614C10.1955 3.7214 10.0701 4.70379 10.0701 6.08332V17.9975L12.8919 18.0602C15.9436 18.0602 18.201 17.2868 19.6641 15.74C21.1273 14.1515 21.8588 12.0613 21.8588 9.46945C21.8588 7.12843 21.2109 5.24725 19.9149 3.82591C18.6608 2.36277 16.7169 1.6312 14.0833 1.6312ZM16.278 39.1921C19.3297 39.1921 21.5871 38.4187 23.0502 36.872C24.5552 35.2834 25.3077 33.026 25.3077 30.0997C25.3077 26.9226 24.3671 24.3517 22.4859 22.3869C20.6465 20.4221 18.0965 19.4188 14.8358 19.377C13.498 19.3352 11.9095 19.377 10.0701 19.5024V34.9908C10.0701 36.0777 10.2164 36.9138 10.509 37.499C10.8435 38.0843 11.4496 38.5232 12.3275 38.8158C13.2472 39.0667 14.564 39.1921 16.278 39.1921Z" fill="url(#paint0_linear_349_22)"/>
<path d="M42.1516 34.9908C42.1516 36.2449 42.277 37.1855 42.5278 37.8125C42.7786 38.3978 43.2594 38.7949 43.97 39.004C44.7225 39.213 45.893 39.3175 47.4816 39.3175C47.607 39.3175 47.6697 39.4429 47.6697 39.6937C47.6697 39.9445 47.607 40.07 47.4816 40.07C46.2274 40.07 45.2241 40.0491 44.4717 40.0073L40.0195 39.9445L35.6928 40.0073C34.9404 40.0491 33.9162 40.07 32.6202 40.07C32.4948 40.07 32.4321 39.9445 32.4321 39.6937C32.4321 39.4429 32.4948 39.3175 32.6202 39.3175C34.2088 39.3175 35.3584 39.213 36.0691 39.004C36.8215 38.7949 37.3232 38.3978 37.574 37.8125C37.8666 37.1855 38.013 36.2449 38.013 34.9908V5.95791C38.013 4.7038 37.8666 3.78411 37.574 3.19885C37.3232 2.6136 36.8215 2.21646 36.0691 2.00744C35.3584 1.75661 34.2088 1.6312 32.6202 1.6312C32.4948 1.6312 32.4321 1.50579 32.4321 1.25497C32.4321 1.00414 32.4948 0.878733 32.6202 0.878733L35.6928 0.941438C37.4486 1.02504 38.8908 1.06685 40.0195 1.06685C41.2737 1.06685 42.7786 1.02504 44.5344 0.941438L47.4816 0.878733C47.607 0.878733 47.6697 1.00414 47.6697 1.25497C47.6697 1.50579 47.607 1.6312 47.4816 1.6312C45.9348 1.6312 44.7852 1.75661 44.0327 2.00744C43.3221 2.25826 42.8204 2.69721 42.5278 3.32426C42.277 3.90952 42.1516 4.82921 42.1516 6.08332V34.9908Z" fill="url(#paint1_linear_349_22)"/>
<path d="M59.3976 34.74C59.3976 36.0777 59.5649 37.0601 59.8993 37.6871C60.2755 38.2724 60.9653 38.6904 61.9686 38.9412C63.0137 39.1921 64.644 39.3175 66.8596 39.3175C66.9851 39.3175 67.0478 39.4429 67.0478 39.6937C67.0478 39.9445 66.9851 40.07 66.8596 40.07C65.1457 40.07 63.808 40.0491 62.8465 40.0073L57.3911 39.9445L53.1898 40.0073C52.3955 40.0491 51.3295 40.07 49.9917 40.07C49.9081 40.07 49.8663 39.9445 49.8663 39.6937C49.8663 39.4429 49.9081 39.3175 49.9917 39.3175C51.5803 39.3175 52.7299 39.213 53.4406 39.004C54.193 38.7949 54.6947 38.3978 54.9455 37.8125C55.1963 37.1855 55.3218 36.2449 55.3218 34.9908V5.95791C55.3218 4.7038 55.1963 3.78411 54.9455 3.19885C54.6947 2.6136 54.193 2.21646 53.4406 2.00744C52.7299 1.75661 51.5803 1.6312 49.9917 1.6312C49.9081 1.6312 49.8663 1.50579 49.8663 1.25497C49.8663 1.00414 49.9081 0.878733 49.9917 0.878733L53.127 0.941438C54.8828 1.02504 56.2832 1.06685 57.3283 1.06685C58.3734 1.06685 59.544 1.00414 60.8399 0.878733C61.3415 0.878733 62.1358 0.85783 63.2227 0.816024C64.3096 0.732418 65.2502 0.690614 66.0445 0.690614C69.8904 0.690614 72.963 1.5476 75.2622 3.26156C77.6033 4.97552 78.7738 7.58827 78.7738 11.0998C78.7738 13.8589 78.084 16.179 76.7045 18.0602C75.3668 19.9413 73.6319 21.3418 71.4999 22.2615C69.4097 23.1812 67.2359 23.641 64.9785 23.641C63.7243 23.641 62.7002 23.5365 61.9059 23.3275C61.7805 23.3275 61.7178 23.223 61.7178 23.0139C61.7178 22.8885 61.7387 22.7631 61.7805 22.6377C61.8641 22.5123 61.9477 22.4705 62.0313 22.5123C62.7002 22.6795 63.4526 22.7631 64.2887 22.7631C67.0478 22.7631 69.3679 21.8643 71.2491 20.0668C73.1721 18.2692 74.1335 15.6773 74.1335 12.2912C74.1335 8.9887 73.2348 6.39686 71.4372 4.51568C69.6396 2.59269 67.3404 1.6312 64.5395 1.6312C63.0346 1.6312 61.9477 1.71481 61.2788 1.88203C60.61 2.04924 60.1292 2.44638 59.8366 3.07344C59.544 3.65869 59.3976 4.66199 59.3976 6.08332V34.74Z" fill="url(#paint2_linear_349_22)"/>
<path d="M116.897 0.878733C116.981 0.878733 117.022 1.00414 117.022 1.25497C117.022 1.50579 116.981 1.6312 116.897 1.6312C115.81 1.6312 114.765 2.02834 113.762 2.82261C112.8 3.61689 111.964 4.7665 111.254 6.27144L99.5902 31.1657C98.3779 33.7994 97.6254 35.4924 97.3328 36.2449C96.7893 37.5408 96.3922 38.4187 96.1414 38.8785C95.8905 39.3384 95.6188 39.6519 95.3262 39.8191C95.0336 39.9863 94.6155 40.07 94.0721 40.07H84.5408C84.4154 40.07 84.3526 39.9445 84.3526 39.6937C84.3526 39.4429 84.4154 39.3175 84.5408 39.3175C87.5925 39.3175 90.2261 38.6695 92.4417 37.3736C94.6991 36.0777 96.5176 34.0084 97.8971 31.1657L84.3526 6.08332C83.4748 4.41117 82.6596 3.26156 81.9071 2.6345C81.1546 1.96563 80.1514 1.6312 78.8972 1.6312C78.8136 1.6312 78.7718 1.50579 78.7718 1.25497C78.7718 1.00414 78.8136 0.878733 78.8972 0.878733L81.4055 0.941438C82.6596 1.02504 83.7256 1.06685 84.6035 1.06685C86.1502 1.06685 87.8015 1.02504 89.5572 0.941438L92.1282 0.878733C92.2118 0.878733 92.2536 1.00414 92.2536 1.25497C92.2536 1.50579 92.2118 1.6312 92.1282 1.6312C89.5363 1.6312 88.2404 2.30007 88.2404 3.63779C88.2404 4.09764 88.4285 4.70379 88.8048 5.45626L100.155 26.4001L109.811 5.95791C110.187 5.20544 110.376 4.55748 110.376 4.01403C110.376 2.42548 108.724 1.6312 105.422 1.6312C105.296 1.6312 105.234 1.50579 105.234 1.25497C105.234 1.00414 105.296 0.878733 105.422 0.878733L107.993 0.941438C109.414 1.02504 110.71 1.06685 111.881 1.06685C112.591 1.06685 113.448 1.02504 114.451 0.941438L116.897 0.878733Z" fill="url(#paint3_linear_349_22)"/>
<path d="M156.297 0.188965C160.101 0.188965 163.445 1.12955 166.33 3.01073C169.214 4.85011 171.43 7.29564 172.977 10.3473C174.565 13.399 175.36 16.6388 175.36 20.0668C175.36 23.8709 174.377 27.3615 172.412 30.5386C170.489 33.7158 167.898 36.224 164.637 38.0634C161.376 39.9027 157.844 40.8224 154.04 40.8224C150.277 40.8224 146.933 39.9236 144.007 38.1261C141.122 36.2867 138.886 33.8203 137.297 30.7268C135.708 27.5915 134.914 24.1844 134.914 20.5057V20.3176H125.195V34.9908C125.195 36.2449 125.32 37.1855 125.571 37.8125C125.864 38.3978 126.386 38.7949 127.139 39.004C127.891 39.213 129.083 39.3175 130.713 39.3175C130.797 39.3175 130.838 39.4429 130.838 39.6937C130.838 39.9445 130.797 40.07 130.713 40.07C129.417 40.07 128.393 40.0491 127.64 40.0073L123.125 39.9445L118.799 40.0073C118.046 40.0491 117.001 40.07 115.663 40.07C115.58 40.07 115.538 39.9445 115.538 39.6937C115.538 39.4429 115.58 39.3175 115.663 39.3175C117.252 39.3175 118.423 39.213 119.175 39.004C119.969 38.7949 120.492 38.3978 120.743 37.8125C121.035 37.1855 121.182 36.2449 121.182 34.9908V5.95791C121.182 4.7038 121.035 3.78411 120.743 3.19885C120.492 2.6136 119.99 2.21646 119.238 2.00744C118.485 1.75661 117.315 1.6312 115.726 1.6312C115.643 1.6312 115.601 1.50579 115.601 1.25497C115.601 1.00414 115.643 0.878733 115.726 0.878733L118.924 0.941438C120.68 1.02504 122.08 1.06685 123.125 1.06685C124.338 1.06685 125.864 1.02504 127.703 0.941438L130.713 0.878733C130.797 0.878733 130.838 1.00414 130.838 1.25497C130.838 1.50579 130.797 1.6312 130.713 1.6312C129.124 1.6312 127.933 1.75661 127.139 2.00744C126.386 2.25826 125.864 2.69721 125.571 3.32426C125.32 3.90952 125.195 4.82921 125.195 6.08332V19.0008H134.977C135.228 15.0294 136.419 11.6224 138.551 8.77968C140.725 5.93701 143.4 3.80501 146.578 2.38368C149.755 0.920535 152.994 0.188965 156.297 0.188965ZM156.172 39.5056C158.847 39.5056 161.251 38.8158 163.383 37.4363C165.557 36.0568 167.27 34.0293 168.525 31.3538C169.779 28.6784 170.406 25.5013 170.406 21.8225C170.406 17.8929 169.695 14.4023 168.274 11.3506C166.894 8.29894 164.929 5.91611 162.379 4.20215C159.829 2.48818 156.861 1.6312 153.475 1.6312C149.086 1.6312 145.658 3.11524 143.191 6.08332C140.767 9.05141 139.554 13.1273 139.554 18.311C139.554 22.2406 140.244 25.8357 141.624 29.0964C143.045 32.3153 145.01 34.8654 147.518 36.7465C150.068 38.5859 152.953 39.5056 156.172 39.5056Z" fill="url(#paint4_linear_349_22)"/>
<path d="M20.7928 94.1225C16.9051 94.1225 13.4353 93.2237 10.3836 91.4261C7.37375 89.5868 5.03273 87.1203 3.36057 84.0268C1.73022 80.8915 0.915039 77.4845 0.915039 73.8058C0.915039 69.5 2.00194 65.8212 4.17575 62.7695C6.34955 59.676 9.12952 57.3559 12.5156 55.8092C15.9436 54.2624 19.4342 53.489 22.9875 53.489C26.9589 53.489 30.4495 54.4296 33.4594 56.3108C36.4693 58.1502 38.7685 60.5957 40.3571 63.6474C41.9874 66.6991 42.8026 69.9389 42.8026 73.3668C42.8026 77.171 41.7993 80.6616 39.7927 83.8387C37.7861 87.0158 35.0898 89.5241 31.7037 91.3634C28.3593 93.2028 24.7224 94.1225 20.7928 94.1225ZM22.9875 92.8057C25.8302 92.8057 28.3802 92.1159 30.6377 90.7364C32.9369 89.3568 34.7344 87.3294 36.0304 84.6539C37.3681 81.9784 38.037 78.8013 38.037 75.1226C38.037 71.193 37.3054 67.7024 35.8423 64.6507C34.3791 61.599 32.3098 59.2162 29.6344 57.5022C27.0007 55.7882 23.9072 54.9313 20.3539 54.9313C15.7554 54.9313 12.1603 56.4153 9.56846 59.3834C6.97661 62.3515 5.68069 66.4274 5.68069 71.6111C5.68069 75.5406 6.41226 79.1358 7.8754 82.3965C9.33854 85.6154 11.3869 88.1654 14.0206 90.0466C16.6542 91.886 19.6432 92.8057 22.9875 92.8057Z" fill="url(#paint5_linear_349_22)"/>
<path d="M60.0232 71.2348C69.7218 71.2348 74.571 74.6836 74.571 81.5813C74.571 83.9223 74.0276 86.0125 72.9407 87.8519C71.8956 89.6913 70.4115 91.1126 68.4885 92.1159C66.5656 93.1192 64.3708 93.6208 61.9044 93.6208C60.7757 93.6208 59.4589 93.5581 57.9539 93.4327C57.3269 93.3909 56.5744 93.3491 55.6965 93.3073C54.8186 93.2655 53.878 93.2446 52.8748 93.2446L48.6108 93.3073C47.8583 93.3491 46.7923 93.37 45.4128 93.37C45.3291 93.37 45.2873 93.2446 45.2873 92.9938C45.2873 92.743 45.3291 92.6176 45.4128 92.6176C47.0013 92.6176 48.1718 92.513 48.9243 92.304C49.6768 92.095 50.1784 91.6979 50.4292 91.1126C50.7219 90.4855 50.8682 89.545 50.8682 88.2908V59.258C50.8682 58.0039 50.7428 57.0842 50.4919 56.4989C50.2411 55.9137 49.7395 55.5165 48.987 55.3075C48.2763 55.0567 47.1267 54.9313 45.5382 54.9313C45.4127 54.9313 45.35 54.8059 45.35 54.555C45.35 54.3042 45.4127 54.1788 45.5382 54.1788H70.2443C70.4951 54.1788 70.6623 54.2415 70.7459 54.3669C70.8296 54.4505 70.8923 54.6386 70.9341 54.9313L71.7492 62.9576C71.7492 63.083 71.6447 63.1457 71.4357 63.1457C71.2267 63.1457 71.0804 63.083 70.9968 62.9576C70.5787 60.6166 69.7009 58.7772 68.3631 57.4395C67.0672 56.1018 65.4577 55.4329 63.5348 55.4329H59.9605C58.4974 55.4329 57.4105 55.5583 56.6998 55.8092C56.031 56.0182 55.5711 56.4153 55.3203 57.0006C55.0695 57.544 54.944 58.4219 54.944 59.6342V71.5483C56.9088 71.3393 58.6019 71.2348 60.0232 71.2348ZM60.6503 92.4921C63.9946 92.4921 66.4192 91.7397 67.9242 90.2347C69.4291 88.688 70.1816 86.347 70.1816 83.2117C70.1816 79.3657 69.1783 76.6275 67.1717 74.9972C65.1651 73.325 62.3015 72.4889 58.581 72.4889C57.2851 72.4889 56.0728 72.5725 54.944 72.7398V88.2908C54.944 89.754 55.3203 90.82 56.0728 91.4888C56.8252 92.1577 58.3511 92.4921 60.6503 92.4921Z" fill="url(#paint6_linear_349_22)"/>
<path d="M87.0255 88.2908C87.0255 89.545 87.1509 90.4855 87.4017 91.1126C87.6525 91.6979 88.1333 92.095 88.844 92.304C89.5964 92.513 90.7669 92.6176 92.3555 92.6176C92.4809 92.6176 92.5436 92.743 92.5436 92.9938C92.5436 93.2446 92.4809 93.37 92.3555 93.37C91.1014 93.37 90.0981 93.3491 89.3456 93.3073L84.8935 93.2446L80.5668 93.3073C79.8143 93.3491 78.7901 93.37 77.4942 93.37C77.3688 93.37 77.3061 93.2446 77.3061 92.9938C77.3061 92.743 77.3688 92.6176 77.4942 92.6176C79.0827 92.6176 80.2323 92.513 80.943 92.304C81.6955 92.095 82.1971 91.6979 82.448 91.1126C82.7406 90.4855 82.8869 89.545 82.8869 88.2908V59.258C82.8869 58.0039 82.7406 57.0842 82.448 56.4989C82.1971 55.9137 81.6955 55.5165 80.943 55.3075C80.2323 55.0567 79.0827 54.9313 77.4942 54.9313C77.3688 54.9313 77.3061 54.8059 77.3061 54.555C77.3061 54.3042 77.3688 54.1788 77.4942 54.1788L80.5668 54.2415C82.3225 54.3251 83.7648 54.3669 84.8935 54.3669C86.1476 54.3669 87.6525 54.3251 89.4083 54.2415L92.3555 54.1788C92.4809 54.1788 92.5436 54.3042 92.5436 54.555C92.5436 54.8059 92.4809 54.9313 92.3555 54.9313C90.8087 54.9313 89.6591 55.0567 88.9067 55.3075C88.196 55.5583 87.6944 55.9973 87.4017 56.6243C87.1509 57.2096 87.0255 58.1293 87.0255 59.3834V88.2908Z" fill="url(#paint7_linear_349_22)"/>
<path d="M134.433 105.096C134.433 100.832 133.722 97.8012 132.301 96.0037C130.922 94.2479 128.581 93.37 125.278 93.37H94.4268C94.3431 93.37 94.3013 93.2446 94.3013 92.9938C94.3013 92.743 94.3431 92.6176 94.4268 92.6176C96.0153 92.6176 97.1858 92.513 97.9383 92.304C98.7326 92.095 99.2551 91.6979 99.5059 91.1126C99.7986 90.4855 99.9449 89.545 99.9449 88.2908V59.258C99.9449 58.0039 99.7986 57.0842 99.5059 56.4989C99.2551 55.9137 98.7326 55.5165 97.9383 55.3075C97.1858 55.0567 96.0153 54.9313 94.4268 54.9313C94.3431 54.9313 94.3013 54.8059 94.3013 54.555C94.3013 54.3042 94.3431 54.1788 94.4268 54.1788L97.562 54.2415C99.3178 54.3251 100.739 54.3669 101.826 54.3669C102.997 54.3669 104.502 54.3251 106.341 54.2415L109.476 54.1788C109.56 54.1788 109.602 54.3042 109.602 54.555C109.602 54.8059 109.56 54.9313 109.476 54.9313C107.846 54.9313 106.654 55.0567 105.902 55.3075C105.149 55.5165 104.627 55.9137 104.334 56.4989C104.083 57.0842 103.958 58.0039 103.958 59.258V88.1654C103.958 89.5868 104.021 90.5274 104.146 90.9872C104.313 91.447 104.69 91.7397 105.275 91.8651C105.86 91.9905 107.052 92.0532 108.849 92.0532H120.575C122.456 92.0532 123.71 91.9905 124.337 91.8651C125.006 91.7397 125.424 91.447 125.592 90.9872C125.759 90.4855 125.842 89.545 125.842 88.1654V59.258C125.842 58.0039 125.696 57.0842 125.403 56.4989C125.153 55.9137 124.651 55.5165 123.899 55.3075C123.146 55.0567 121.955 54.9313 120.324 54.9313C120.199 54.9313 120.136 54.8059 120.136 54.555C120.136 54.3042 120.199 54.1788 120.324 54.1788L123.46 54.2415C125.299 54.3251 126.783 54.3669 127.912 54.3669C129.04 54.3669 130.483 54.3251 132.238 54.2415L135.374 54.1788C135.457 54.1788 135.499 54.3042 135.499 54.555C135.499 54.8059 135.457 54.9313 135.374 54.9313C133.785 54.9313 132.594 55.0567 131.799 55.3075C131.047 55.5165 130.524 55.9137 130.232 56.4989C129.981 57.0842 129.856 58.0039 129.856 59.258V88.2908C129.856 89.8794 129.918 90.9245 130.044 91.4261C130.211 91.9278 130.587 92.2622 131.172 92.4294C131.758 92.5548 132.907 92.6176 134.621 92.6176C134.956 92.6176 135.144 92.6594 135.186 92.743C135.269 92.8266 135.311 93.0356 135.311 93.37C135.311 94.0807 135.29 94.6868 135.248 95.1885C135.165 97.2787 135.123 100.581 135.123 105.096C135.123 105.305 134.997 105.41 134.747 105.41C134.538 105.41 134.433 105.305 134.433 105.096Z" fill="url(#paint8_linear_349_22)"/>
<path d="M169.708 92.6176C169.791 92.6176 169.833 92.743 169.833 92.9938C169.833 93.2446 169.791 93.37 169.708 93.37C168.37 93.37 167.325 93.3491 166.572 93.3073L162.246 93.2446L157.856 93.3073C157.104 93.3491 156.08 93.37 154.784 93.37C154.7 93.37 154.658 93.2446 154.658 92.9938C154.658 92.743 154.7 92.6176 154.784 92.6176C156.372 92.6176 157.543 92.513 158.295 92.304C159.048 92.095 159.549 91.6979 159.8 91.1126C160.051 90.4855 160.176 89.545 160.176 88.2908V73.0533C158.797 73.1369 157.605 73.4504 156.602 73.9939C155.599 74.4955 154.533 75.4361 153.404 76.8157C152.275 78.1534 150.938 80.16 149.391 82.8354C147.343 86.347 145.775 88.8552 144.688 90.3601C143.643 91.8651 142.89 92.743 142.431 92.9938C142.013 93.2446 141.448 93.37 140.738 93.37H134.279C134.153 93.37 134.091 93.2446 134.091 92.9938C134.091 92.743 134.153 92.6176 134.279 92.6176C136.453 92.5758 138.334 91.7397 139.922 90.1093C141.511 88.4372 143.434 85.5945 145.691 81.5813C147.28 78.8222 148.743 76.8157 150.081 75.5615C151.418 74.3074 152.965 73.4713 154.721 73.0533C151.084 72.7189 148.304 71.7365 146.381 70.1061C144.5 68.434 143.559 66.2811 143.559 63.6474C143.559 61.7662 144.04 60.0941 145.002 58.6309C146.005 57.1678 147.363 56.0391 149.077 55.2448C150.833 54.4087 152.798 53.9907 154.972 53.9907C155.933 53.9907 157.041 54.0534 158.295 54.1788C158.797 54.2206 159.382 54.2624 160.051 54.3042C160.72 54.346 161.451 54.3669 162.246 54.3669C163.333 54.3669 164.754 54.3251 166.51 54.2415L169.708 54.1788C169.791 54.1788 169.833 54.3042 169.833 54.555C169.833 54.8059 169.791 54.9313 169.708 54.9313C168.077 54.9313 166.886 55.0567 166.133 55.3075C165.381 55.5165 164.879 55.9137 164.629 56.4989C164.378 57.0842 164.252 58.0039 164.252 59.258V88.2908C164.252 89.545 164.378 90.4855 164.629 91.1126C164.921 91.6979 165.423 92.095 166.133 92.304C166.886 92.513 168.077 92.6176 169.708 92.6176ZM147.823 62.0797C147.823 65.1314 148.68 67.577 150.394 69.4163C152.108 71.2557 154.596 72.1754 157.856 72.1754C158.4 72.1754 159.173 72.1336 160.176 72.05V59.3834C160.176 57.7112 159.675 56.5407 158.671 55.8719C157.668 55.1612 156.414 54.8059 154.909 54.8059C150.185 54.8059 147.823 57.2305 147.823 62.0797Z" fill="url(#paint9_linear_349_22)"/>
<path d="M211.642 53.489C215.446 53.489 218.791 54.4296 221.675 56.3108C224.56 58.1502 226.775 60.5957 228.322 63.6474C229.911 66.6991 230.705 69.9389 230.705 73.3668C230.705 77.171 229.723 80.6616 227.758 83.8387C225.835 87.0158 223.243 89.5241 219.982 91.3634C216.721 93.2028 213.189 94.1225 209.385 94.1225C205.623 94.1225 202.278 93.2237 199.352 91.4261C196.467 89.5868 194.231 87.1203 192.642 84.0268C191.054 80.8915 190.26 77.4845 190.26 73.8058V73.6176H180.54V88.2908C180.54 89.545 180.666 90.4855 180.916 91.1126C181.209 91.6979 181.732 92.095 182.484 92.304C183.236 92.513 184.428 92.6176 186.058 92.6176C186.142 92.6176 186.184 92.743 186.184 92.9938C186.184 93.2446 186.142 93.37 186.058 93.37C184.762 93.37 183.738 93.3491 182.986 93.3073L178.471 93.2446L174.144 93.3073C173.392 93.3491 172.347 93.37 171.009 93.37C170.925 93.37 170.883 93.2446 170.883 92.9938C170.883 92.743 170.925 92.6176 171.009 92.6176C172.597 92.6176 173.768 92.513 174.52 92.304C175.315 92.095 175.837 91.6979 176.088 91.1126C176.381 90.4855 176.527 89.545 176.527 88.2908V59.258C176.527 58.0039 176.381 57.0842 176.088 56.4989C175.837 55.9137 175.336 55.5165 174.583 55.3075C173.831 55.0567 172.66 54.9313 171.072 54.9313C170.988 54.9313 170.946 54.8059 170.946 54.555C170.946 54.3042 170.988 54.1788 171.072 54.1788L174.27 54.2415C176.025 54.3251 177.426 54.3669 178.471 54.3669C179.683 54.3669 181.209 54.3251 183.048 54.2415L186.058 54.1788C186.142 54.1788 186.184 54.3042 186.184 54.555C186.184 54.8059 186.142 54.9313 186.058 54.9313C184.47 54.9313 183.278 55.0567 182.484 55.3075C181.732 55.5583 181.209 55.9973 180.916 56.6243C180.666 57.2096 180.54 58.1293 180.54 59.3834V72.3008H190.322C190.573 68.3294 191.764 64.9224 193.896 62.0797C196.07 59.2371 198.746 57.1051 201.923 55.6837C205.1 54.2206 208.34 53.489 211.642 53.489ZM211.517 92.8057C214.192 92.8057 216.596 92.1159 218.728 90.7364C220.902 89.3568 222.616 87.3294 223.87 84.6539C225.124 81.9784 225.751 78.8013 225.751 75.1226C225.751 71.193 225.04 67.7024 223.619 64.6507C222.24 61.599 220.275 59.2162 217.725 57.5022C215.175 55.7882 212.207 54.9313 208.821 54.9313C204.431 54.9313 201.003 56.4153 198.537 59.3834C196.112 62.3515 194.9 66.4274 194.9 71.6111C194.9 75.5406 195.59 79.1358 196.969 82.3965C198.39 85.6154 200.355 88.1654 202.863 90.0466C205.414 91.886 208.298 92.8057 211.517 92.8057Z" fill="url(#paint10_linear_349_22)"/>
<defs>
<linearGradient id="paint0_linear_349_22" x1="115.559" y1="0.188971" x2="217.313" y2="176.048" gradientUnits="userSpaceOnUse">
<stop stop-color="white"/>
<stop offset="1" stop-color="white" stop-opacity="0"/>
</linearGradient>
<linearGradient id="paint1_linear_349_22" x1="115.559" y1="0.188971" x2="217.313" y2="176.048" gradientUnits="userSpaceOnUse">
<stop stop-color="white"/>
<stop offset="1" stop-color="white" stop-opacity="0"/>
</linearGradient>
<linearGradient id="paint2_linear_349_22" x1="115.559" y1="0.188971" x2="217.313" y2="176.048" gradientUnits="userSpaceOnUse">
<stop stop-color="white"/>
<stop offset="1" stop-color="white" stop-opacity="0"/>
</linearGradient>
<linearGradient id="paint3_linear_349_22" x1="115.559" y1="0.188971" x2="217.313" y2="176.048" gradientUnits="userSpaceOnUse">
<stop stop-color="white"/>
<stop offset="1" stop-color="white" stop-opacity="0"/>
</linearGradient>
<linearGradient id="paint4_linear_349_22" x1="115.559" y1="0.188971" x2="217.313" y2="176.048" gradientUnits="userSpaceOnUse">
<stop stop-color="white"/>
<stop offset="1" stop-color="white" stop-opacity="0"/>
</linearGradient>
<linearGradient id="paint5_linear_349_22" x1="115.559" y1="0.188971" x2="217.313" y2="176.048" gradientUnits="userSpaceOnUse">
<stop stop-color="white"/>
<stop offset="1" stop-color="white" stop-opacity="0"/>
</linearGradient>
<linearGradient id="paint6_linear_349_22" x1="115.559" y1="0.188971" x2="217.313" y2="176.048" gradientUnits="userSpaceOnUse">
<stop stop-color="white"/>
<stop offset="1" stop-color="white" stop-opacity="0"/>
</linearGradient>
<linearGradient id="paint7_linear_349_22" x1="115.559" y1="0.188971" x2="217.313" y2="176.048" gradientUnits="userSpaceOnUse">
<stop stop-color="white"/>
<stop offset="1" stop-color="white" stop-opacity="0"/>
</linearGradient>
<linearGradient id="paint8_linear_349_22" x1="115.559" y1="0.188971" x2="217.313" y2="176.048" gradientUnits="userSpaceOnUse">
<stop stop-color="white"/>
<stop offset="1" stop-color="white" stop-opacity="0"/>
</linearGradient>
<linearGradient id="paint9_linear_349_22" x1="115.559" y1="0.188971" x2="217.313" y2="176.048" gradientUnits="userSpaceOnUse">
<stop stop-color="white"/>
<stop offset="1" stop-color="white" stop-opacity="0"/>
</linearGradient>
<linearGradient id="paint10_linear_349_22" x1="115.559" y1="0.188971" x2="217.313" y2="176.048" gradientUnits="userSpaceOnUse">
<stop stop-color="white"/>
<stop offset="1" stop-color="white" stop-opacity="0"/>
</linearGradient>
</defs>
</svg>
