<svg xmlns="http://www.w3.org/2000/svg" width="156" height="156" viewBox="0 0 156 156" fill="none"><path fill-rule="evenodd" clip-rule="evenodd" d="M17.3315 3.92004C9.92022 3.92004 3.91223 9.92803 3.91223 17.3393V138.676C3.91223 146.088 9.92022 152.096 17.3315 152.096H138.669C146.08 152.096 152.088 146.088 152.088 138.676V17.3393C152.088 9.92803 146.08 3.92004 138.669 3.92004H17.3315ZM0 17.3393C0 7.76737 7.75956 0.0078125 17.3315 0.0078125H138.669C148.24 0.0078125 156 7.76737 156 17.3393V138.676C156 148.248 148.24 156.008 138.669 156.008H17.3315C7.75956 156.008 0 148.248 0 138.676V17.3393Z" fill="white"></path><path d="M40.9715 41.4297C34.8321 59.8794 13.505 66.1529 3.91211 67.0071V99.5275C28.6745 95.6325 39.1382 80.0374 40.9715 72.6917C47.8273 94.1138 69.4944 99.5547 79.471 99.5975C101.573 99.5975 112.641 81.6603 115.412 72.6917C121.245 94.5238 142.452 99.6556 152.088 99.5275V67.133C128.042 67.133 118.738 50.5264 115.412 41.5578C106.715 62.2625 86.9321 67.1397 79.471 67.0543C52.0481 67.0543 43.4444 49.9712 40.9715 41.4297Z" fill="#69ACDF"></path><path d="M40.9715 71.9219C34.8321 90.3716 13.505 96.9594 3.91211 97.8135V130.089C28.6745 126.194 39.1382 110.53 40.9715 103.184C47.8273 124.606 69.4944 130.047 79.471 130.09C101.573 130.09 112.641 112.152 115.412 103.184C121.245 125.016 142.452 130.217 152.088 130.089V97.8135C128.042 97.8135 118.738 81.0186 115.412 72.05C106.715 92.7546 88.2205 97.761 80.7594 97.6756C53.3365 97.6756 43.4444 80.4634 40.9715 71.9219Z" fill="#004799"></path><path d="M40.7788 102.543C34.3212 120.891 13.3509 128.849 3.91211 130.088V139.135C3.91203 147.591 11.5135 151.838 16.3823 152.094H74.8212H104.163H134.483C140.247 152.094 142.62 152.34 146.464 149.649C149.986 147.359 151.831 143.491 152.088 139.135V130.088C126.36 128.55 117.656 109.462 115.477 102.927C107.277 124.76 87.1611 129.578 79.6015 129.578C54.926 129.578 43.5549 111.427 40.7788 102.543Z" fill="#09255C"></path></svg>